<svg xmlns="http://www.w3.org/2000/svg" width="256" height="256"><path fill="#1976D2" fill-opacity=".016" fill-rule="evenodd" d="M0 128.004v128.004l128.25-.254 128.25-.254.254-127.75L257.008 0H0v128.004m.485.496c0 70.4.119 99.053.265 63.672.146-35.38.146-92.98 0-128C.604 29.153.485 58.1.485 128.5"/><path fill="#1976D2" fill-opacity=".374" fill-rule="evenodd" d="M105.555 1.614C59.65 9.901 21.304 42.989 6.599 87 1.869 101.16 0 112.769 0 128c0 26.521 6.823 49.091 21.443 70.937 8.57 12.806 17.69 22.529 29.376 31.318 11.845 8.908 22.66 14.623 36.308 19.186 25.588 8.554 53.757 8.897 79.044.963 32.599-10.229 61.585-34.858 76.773-65.233 4.207-8.414 9.667-24.993 11.088-33.671.631-3.85 1.557-7.781 2.058-8.736 1.065-2.032 1.253-31.441.194-30.381-.394.393-1.277-2.604-1.962-6.662-3.899-23.082-15.925-47.074-32.812-65.458-8.127-8.846-23.222-20.351-34.137-26.017-10.235-5.313-26.235-10.695-37.754-12.7-11.044-1.923-33.229-1.888-44.064.068M104.5 14.032c-43.235 9.085-77.599 41.661-89.223 84.58-2.475 9.137-2.679 11.37-2.679 29.388s.204 20.251 2.679 29.388c5.426 20.035 17.661 40.726 32.326 54.669C69.983 233.333 96.829 244 128 244c31.171 0 58.017-10.667 80.397-31.943 14.665-13.943 26.9-34.634 32.326-54.669 2.475-9.137 2.679-11.37 2.679-29.388 0-17.995-.206-20.259-2.666-29.337-9.795-36.154-35.714-65.297-70.236-78.976-19.337-7.662-45.699-9.921-66-5.655M68 128.5V197h113v-23c0-12.65-.275-23-.611-23-.336 0-2.811 1.842-5.5 4.093L170 159.186V187H78V70h92v26c0 14.3.254 26 .564 26 .311 0 2.786-1.912 5.5-4.25l4.935-4.25.001-26.75V60H68v68.5M86 81c-1.1 1.1-2 2.9-2 4s.9 2.9 2 4c1.915 1.915 3.333 2 33.5 2s31.585-.085 33.5-2c2.403-2.403 2.538-4.786.443-7.777-1.553-2.218-1.624-2.223-33.5-2.223-30.61 0-32.026.083-33.943 2m1.228 23.23c-3.045 1.468-3.855 5.163-1.815 8.277L87.046 115h28.322c26.168 0 28.448-.139 29.977-1.829 2.362-2.61 2.089-6.753-.568-8.614-1.882-1.319-6.283-1.547-28.75-1.489-17.028.043-27.34.459-28.799 1.162m99.37 7.667-2.776 2.898 4.432 4.085c2.437 2.246 5.558 4.971 6.935 6.054l2.503 1.969 3.404-2.854c1.872-1.57 3.179-3.06 2.904-3.312C198.07 115.3 190.587 109 190.061 109c-.378 0-1.936 1.304-3.463 2.897M.402 128c0 8.525.154 12.012.341 7.75.188-4.262.188-11.237 0-15.5-.187-4.263-.341-.775-.341 7.75m166.706 1.632-15.174 13.704 3.283 3.42c1.806 1.881 4.912 4.722 6.902 6.313l3.62 2.892 12.88-11.589c7.085-6.373 13.984-12.652 15.331-13.953l2.451-2.365-6.351-5.777c-3.493-3.177-6.669-5.906-7.059-6.063-.389-.158-7.537 5.881-15.883 13.418M86 126c-1.1 1.1-2 2.9-2 4s.9 2.9 2 4c1.915 1.915 3.333 2 33.5 2s31.585-.085 33.5-2c1.1-1.1 2-2.9 2-4s-.9-2.9-2-4c-1.915-1.915-3.333-2-33.5-2s-31.585.085-33.5 2m62.43 21.113c-.853 1.381-4.446 15.204-4.054 15.597.722.722 18.02-3.398 18.344-4.369.331-.993-11.644-12.341-13.022-12.341-.319 0-.889.501-1.268 1.113M86 150c-1.1 1.1-2 2.9-2 4s.9 2.9 2 4c1.855 1.855 3.333 2 20.345 2 16.502 0 18.511-.184 20-1.829 2.362-2.61 2.089-6.753-.568-8.614-1.809-1.268-5.528-1.557-20-1.557-16.444 0-17.927.15-19.777 2"/><path fill="#1976D2" fill-opacity=".268" fill-rule="evenodd" d="M114 .623C93.626 3.217 73.518 10.636 56.5 21.84c-9.029 5.944-24.254 20.577-31.468 30.245C14.724 65.901 6.325 84.795 2.401 103c-2.562 11.885-2.562 38.115 0 50 5.32 24.678 16.279 45.394 33.529 63.377 18.456 19.242 40.555 31.506 67.07 37.222 11.885 2.562 38.115 2.562 50 0 24.678-5.32 45.394-16.279 63.377-33.529 14.872-14.264 25.341-30.27 32.096-49.07 3.221-8.965 6.475-23.066 6.505-28.191.012-2.03.472-3.969 1.022-4.309.569-.351 1-5.363 1-11.618 0-7.079-.356-10.78-1-10.382-.599.37-1.009-.911-1.022-3.191-.029-5.254-3.264-19.298-6.52-28.309-6.235-17.259-15.271-31.702-28.388-45.377C201.957 20.738 180.739 8.762 155 2.894 146.652.991 121.887-.381 114 .623m2 11c-27.201 3.463-51.381 14.993-69.885 33.323-16.666 16.51-27.289 36.031-32.768 60.216-2.29 10.107-2.29 35.569 0 45.676 10.739 47.4 45.026 81.728 91.653 91.762 11.108 2.391 35.173 2.405 45.838.027 23.545-5.25 43.429-15.979 59.619-32.17 16.173-16.173 26.82-35.888 32.196-59.619 2.29-10.107 2.29-35.569 0-45.676C232.057 58.393 198.361 24.094 153 13.907c-8.307-1.866-29.842-3.195-37-2.284M68 128.492V197h112v-22.559c0-17.779-.265-22.401-1.25-21.812-.687.41-2.712 1.899-4.5 3.309L171 158.5V187H78V70h92.966l.267 25.597.267 25.597 4.766-4.197 4.767-4.196-.267-26.15L180.5 60.5l-56.25-.258L68 59.983v68.509m19.223-47.935C85.799 81.554 85 83.151 85 85c0 5.789 1.224 6 34.768 6h30.323l2.517-2.517c1.835-1.835 2.337-3.121 1.853-4.75-1.377-4.638-2.067-4.733-34.43-4.733-26.064 0-30.915.23-32.808 1.557M86.2 105.2c-1.699 1.699-1.488 6.369.371 8.229 1.353 1.352 5.399 1.571 29 1.571 26.096 0 27.526-.097 29.429-2 2.402-2.402 2.569-5.288.429-7.429-1.355-1.354-5.471-1.571-29.8-1.571-20.623 0-28.552.323-29.429 1.2m100.946 6.681-3.299 2.692 6.936 6.165 6.937 6.164 2.749-2.87c1.512-1.578 2.477-3.31 2.145-3.848-.333-.538-3.207-3.232-6.387-5.987l-5.782-5.009-3.299 2.693m-13.646 12.36a4521.393 4521.393 0 0 0-15.243 13.793l-6.243 5.688 6.777 6.022 6.777 6.023 15.117-13.772 15.118-13.772-4.152-3.884c-2.283-2.137-5.276-4.857-6.651-6.044l-2.5-2.16-9 8.106M.378 128c0 6.325.163 8.912.361 5.75.198-3.163.198-8.338 0-11.5-.198-3.163-.361-.575-.361 5.75m86.845-2.443C85.799 126.554 85 128.151 85 130c0 5.789 1.224 6 34.768 6h30.323l2.517-2.517c1.835-1.835 2.337-3.121 1.853-4.75-1.377-4.638-2.067-4.733-34.43-4.733-26.064 0-30.915.23-32.808 1.557m61.32 21.61c-.825 2.4-3.543 13.598-3.543 14.596 0 .985 16.514-1.944 17.713-3.142.572-.573-10.907-11.687-12.863-12.454-.467-.183-1.055.267-1.307 1M88 149.288c-3.127 1.574-3.858 6.106-1.42 8.8 1.58 1.746 3.275 1.912 19.575 1.912 16.512 0 17.994-.149 19.845-2 3.187-3.187 2.531-6.632-1.684-8.85-3.113-1.639-33.012-1.525-36.316.138"/><path fill="#1976D2" fill-opacity=".983" fill-rule="evenodd" d="M114 1.043a134.09 134.09 0 0 0-58 21.465c-9.56 6.363-27.073 23.843-33.329 33.265C10.206 74.547 3.298 93.921.928 116.75c-3.901 37.57 11.671 78.124 40.161 104.591 45.603 42.367 114.135 45.795 164.039 8.207 27.388-20.629 46.799-54.726 49.527-86.998.354-4.189 1.027-7.853 1.495-8.142.467-.29.85-3.676.85-7.526 0-4.412-.37-6.772-1-6.382-.599.37-1.003-.908-1.008-3.191-.023-11.852-5.2-30.169-12.947-45.809C224.073 35.216 191.851 10.559 152 2.597 142.255.65 123.502-.117 114 1.043m-3.5 10.997c-44.295 6.886-82.481 40.356-94.888 83.172-11.988 41.367-.77 84.729 29.839 115.337 15.194 15.195 33.154 25.513 54.255 31.17 8.903 2.386 11.478 2.625 28.294 2.625 16.816 0 19.391-.239 28.294-2.625 40.634-10.894 72.757-41.809 84.094-80.931 18.438-63.625-19.507-129.693-84.094-146.417-7.814-2.023-12.826-2.609-24.794-2.9-8.25-.2-17.7.057-21 .569M68 128.5V196h112v-44.259l-4.25 3.507-4.25 3.507-.277 14.632-.277 14.633-46.723-.26-46.723-.26v-118l46.75-.26 46.75-.26v52.12l4.5-3.762 4.5-3.762V61H68v67.5m18.2-47.3c-1.547 1.547-1.547 6.053 0 7.6 1.717 1.717 64.883 1.717 66.6 0 1.547-1.547 1.547-6.053 0-7.6-1.717-1.717-64.883-1.717-66.6 0m.317 24.426c-2.314 2.314-1.534 6.567 1.483 8.086 3.008 1.514 51.435 1.834 55.298.365 3.085-1.173 4.091-4.834 2.145-7.805L143.954 104h-27.906c-24.43 0-28.108.202-29.531 1.626m100.585 6.766-2.247 2.392 5.176 4.858c7.316 6.865 7.754 7.028 10.779 4.003l2.582-2.583-5.946-5.486c-3.27-3.017-6.43-5.506-7.022-5.531-.591-.025-2.087 1.031-3.322 2.347M169.5 128.09c-6.6 6.033-13.056 12.021-14.347 13.309l-2.346 2.34 5.2 4.88c2.861 2.685 5.828 5.24 6.593 5.679.98.561 5.693-3.125 15.896-12.431C188.473 134.591 195 128.37 195 128.042c0-.891-11.736-11.052-12.683-10.981-.449.034-6.217 4.997-12.817 11.029M.336 128c0 4.125.177 5.813.392 3.75.216-2.062.216-5.437 0-7.5-.215-2.062-.392-.375-.392 3.75m85.864-1.8c-1.547 1.547-1.547 6.053 0 7.6 1.717 1.717 64.883 1.717 66.6 0 1.547-1.547 1.547-6.053 0-7.6-1.717-1.717-64.883-1.717-66.6 0m61.788 24c-.614 2.365-1.525 5.85-2.025 7.744-.5 1.894-.731 3.621-.513 3.839.465.466 15.693-2.592 16.393-3.292.648-.648-2.381-3.907-8.041-8.652l-4.698-3.938-1.116 4.299m-61.953.734c-1.377 2.573-1.309 5.392.165 6.866.848.848 6.706 1.2 19.977 1.2h18.777l1.638-2.5c1.517-2.316 1.517-2.684 0-5l-1.638-2.5h-18.942c-17.704 0-19.009.126-19.977 1.934"/></svg>